<svg width="55" height="56" viewBox="0 0 55 56" fill="none" xmlns="http://www.w3.org/2000/svg">
<g clip-path="url(#clip0_276_601)">
<path d="M36.8926 24.5256C40.2153 24.5256 42.9088 21.8321 42.9088 18.5096C42.9088 15.187 40.2153 12.4935 36.8926 12.4935C33.57 12.4935 30.8765 15.187 30.8765 18.5096C30.8765 21.8321 33.57 24.5256 36.8926 24.5256Z" fill="#269BFE"/>
<path d="M45.6017 36.2083C58.9341 22.7119 54.2395 3.43862 54.0332 2.62485L53.7793 1.62293L52.7774 1.36905C51.9636 1.16277 32.6933 -3.53513 19.1932 9.80034C17.501 11.4721 15.9936 13.3342 14.7117 15.3347C11.7308 17.2648 9.08884 19.6404 6.85375 22.3968C4.34437 25.4944 2.42097 28.9818 1.13568 32.7628L0 36.1074L3.3413 34.9661C4.73767 34.489 6.17937 34.1127 7.629 33.8463C8.81115 33.6299 10.0182 33.4825 11.2197 33.4088L12.7294 33.3159L12.8438 31.8074C13.1782 27.4245 14.7638 19.0579 21.6346 12.2711C32.2161 1.81787 46.921 3.74917 50.8914 4.51081C51.6542 8.48107 53.5844 23.1857 43.132 33.7681C36.3452 40.6387 27.9783 42.2243 23.5954 42.5576L22.088 42.6732L21.995 44.1828C21.9213 45.382 21.774 46.5902 21.5564 47.7723C21.29 49.2219 20.9137 50.6647 20.4366 52.0599L19.2952 55.4011L22.6377 54.2643C26.4187 52.9779 29.9062 51.0546 33.0039 48.5453C35.7614 46.3113 38.1359 43.6683 40.0662 40.6875C42.0689 39.4056 43.93 37.8982 45.6017 36.206V36.2083Z" fill="#269BFE"/>
<path d="M20.3392 40.9156L27.5046 27.8975L14.4874 35.0639L9.61597 45.7234L20.3392 40.9156Z" fill="#269BFE"/>
</g>
<defs>
<clipPath id="clip0_276_601">
<rect width="55" height="55" fill="white" transform="translate(0 0.401367)"/>
</clipPath>
</defs>
</svg>
